<svg preserveAspectRatio="xMidYMid meet" data-bbox="12.5 24.774 175.001 160.226" viewBox="12.5 24.774 175.001 160.226" height="200" width="200" xmlns="http://www.w3.org/2000/svg" data-type="color" role="presentation" aria-hidden="true" aria-label="">
    <g>
        <path d="M146.599 74.056c-.894-6.677 0-13.353-16.092-17.359-14.451-3.598-28.173 9.698-30.823 11.051-2.43-1.354-15.071-14.649-29.522-11.051C54.07 60.703 54.964 67.38 54.07 74.056c-.894 6.677-4.023 38.28 3.576 66.322 7.384 27.248 26.583 41.254 42.018 41.924v.028c.222.002.447-.01.671-.014.223.004.449.016.67.014v-.028c15.435-.67 34.634-14.676 42.018-41.924 7.599-28.043 4.471-59.646 3.576-66.322z" fill="#FAAF40" data-color="1"></path>
        <path d="M52.672 88.077L36.638 74.501s-.894 14.244.447 19.807c1.341 5.564 4.303 11.546 7.739 15.343 3.436 3.797 8.537 5.355 8.537 5.355l-.689-26.929z" fill="#FAAF40" data-color="1"></path>
        <path fill="#FFFFFF" d="M87.903 152.507l4.694 9.349 3.52-11.102-8.214 1.753z" data-color="2"></path>
        <path fill="#FFFFFF" d="M113.536 152.507l-4.694 9.349-3.52-11.102 8.214 1.753z" data-color="2"></path>
        <path d="M149.57 88.077l16.034-13.576s.894 14.244-.447 19.807c-1.341 5.564-4.303 11.546-7.739 15.343-3.436 3.797-8.537 5.355-8.537 5.355l.689-26.929z" fill="#FAAF40" data-color="1"></path>
        <path fill="#FFFFFF" d="M126.518 98.506c0 3.042-2.476 5.508-5.531 5.508-3.055 0-5.531-2.466-5.531-5.508s2.476-5.508 5.531-5.508c3.055 0 5.531 2.466 5.531 5.508z" data-color="2"></path>
        <path fill="#FFFFFF" d="M85.313 98.506c0 3.042-2.476 5.508-5.531 5.508-3.055 0-5.531-2.466-5.531-5.508s2.476-5.508 5.531-5.508c3.055 0 5.531 2.466 5.531 5.508z" data-color="2"></path>
        <path d="M55.328 116.964s-2.068-.669 10.419 7.104 7.265 41.769 8.159 42.659c-6.065-5.953-10.758-15.973-11.987-18.826-4.138-9.6-6.591-30.937-6.591-30.937z" opacity=".3"></path>
        <path d="M145.31 116.964s2.068-.669-10.419 7.104-7.265 41.769-8.159 42.659c6.065-5.953 10.758-15.973 11.987-18.826 4.137-9.6 6.591-30.937 6.591-30.937z" opacity=".3"></path>
        <path d="M130.05 84.893c-3.37.296-6.191 2.015-9.177 3.835-1.933 1.178-3.932 2.396-6.234 3.33-3.684 1.495-5.237 1.531-5.574 1.515a2.69 2.69 0 0 0-3.186 1.116 2.664 2.664 0 0 0 .879 3.674c.606.372 1.408.557 2.403.557 1.847 0 4.356-.64 7.502-1.916 2.706-1.098 4.992-2.491 7.01-3.721 2.539-1.548 4.732-2.884 6.849-3.07 3.01-.265 4.664 1.772 4.77 1.906a2.69 2.69 0 0 0 3.727.566 2.664 2.664 0 0 0 .594-3.73c-1.249-1.711-4.67-4.492-9.563-4.062z" fill="#292F39" data-color="3"></path>
        <path d="M91.607 98.921c.994 0 1.797-.186 2.403-.557a2.664 2.664 0 0 0 .879-3.674 2.688 2.688 0 0 0-3.186-1.116c-.336.016-1.889-.021-5.573-1.515-2.302-.934-4.3-2.152-6.234-3.33-2.986-1.82-5.806-3.539-9.176-3.835-4.898-.432-8.315 2.351-9.563 4.063a2.68 2.68 0 0 0 .583 3.745 2.675 2.675 0 0 0 3.735-.577c.069-.089 1.723-2.183 4.773-1.91 2.116.186 4.309 1.523 6.848 3.07 2.017 1.229 4.304 2.623 7.01 3.721 3.146 1.275 5.654 1.915 7.501 1.915z" fill="#292F39" data-color="3"></path>
        <path d="M119.21 151.708c-.311-.151-7.753-3.708-18.874-3.708-11.118 0-18.611 3.554-18.925 3.706a2 2 0 0 0-.933 2.676 2.013 2.013 0 0 0 2.688.929c.031-.015 1.451-.687 3.933-1.422l4.299 8.564a1.34 1.34 0 0 0 1.305.734 1.34 1.34 0 0 0 1.173-.929l3.215-10.14a47.343 47.343 0 0 1 7.278.062l3.195 10.078a1.34 1.34 0 0 0 1.279.933 1.34 1.34 0 0 0 1.199-.738l4.19-8.347c2.035.644 3.186 1.189 3.212 1.202 1 .486 2.203.073 2.69-.921a2 2 0 0 0-.924-2.679zm-26.895 6.601l-2.439-4.858 4.267-.911-1.828 5.769zm16.809 0l-1.829-5.768 4.267.911-2.438 4.857z" fill="#292F39" data-color="3"></path>
        <path fill="#292F39" d="M96.129 131.475a2.048 2.048 0 0 1-2.052 2.044 2.048 2.048 0 0 1-2.052-2.044c0-1.129.919-2.044 2.052-2.044s2.052.915 2.052 2.044z" data-color="3"></path>
        <path fill="#292F39" d="M108.164 131.475a2.048 2.048 0 0 1-2.052 2.044 2.048 2.048 0 0 1-2.052-2.044c0-1.129.919-2.044 2.052-2.044s2.052.915 2.052 2.044z" data-color="3"></path>
        <path d="M165.309 100.363a40.3 40.3 0 0 0 1.804-5.587c1.396-5.79.536-19.806.499-20.4a2.005 2.005 0 0 0-1.221-1.719 2.018 2.018 0 0 0-2.09.318l-7.178 6.078-.019-.768s.894-18.472 0-25.594-3.353-12.686-11.845-18.25c-8.493-5.564-16.762-6.899-16.762-6.899s-13.987-2.48-28.259-2.749c-12.055-.227-24.314 1.628-28.51 2.749-9.163 2.448-16.986 6.454-22.573 12.018-5.587 5.564-5.364 12.018-6.258 18.25-.46 3.204-.447 11.641-.325 19.086l-4.629-3.92a2.02 2.02 0 0 0-2.09-.318 2.005 2.005 0 0 0-1.221 1.719c-.037.594-.897 14.61.498 20.4.398 1.65.927 3.314 1.554 4.944-20.34 13.844-24.184 35.092-24.184 35.092s16.092 4.896 25.255 9.125c7.433 3.43 17.807 10.669 27.067 18.864 9.088 13.414 21.455 20.563 32.16 21.944v.234l2.663.02c.178.002.355-.003.534-.009l.156-.004.157.004c.159.005.317.009.474.009h.059l2.663-.048v-.205c11.598-1.497 25.148-9.758 34.364-25.427 14.041-10.944 34.721-22.175 49.449-25.841-1.679-14.2-12.278-25.837-22.192-33.116zM46.318 108.31a20.394 20.394 0 0 1-.529-.611l-.165-.202a25.171 25.171 0 0 1-.915-1.194l-.149-.205a26.038 26.038 0 0 1-.472-.69c-.069-.103-.136-.21-.204-.315a36.06 36.06 0 0 1-.731-1.182c-.085-.145-.171-.289-.255-.436l-.133-.239c-.194-.347-.385-.7-.571-1.059l-.094-.181c-.102-.2-.202-.401-.301-.604l-.088-.181a35.48 35.48 0 0 1-.308-.653l-.001-.003a39.26 39.26 0 0 1-.953-2.256l-.015-.04a34.336 34.336 0 0 1-.282-.756 34.984 34.984 0 0 1-1.11-3.662c-.827-3.431-.74-10.622-.581-15.168l12.224 10.35.587 22.937c-1.528-.775-3.434-1.97-4.954-3.65zm94.116 31.372c-7.204 26.583-25.549 39.344-39.545 39.951l-.314.017-.24-.006-.19.005-.363-.016c-13.997-.607-32.342-13.368-39.545-39.951-8.103-29.899-3.699-63.843-3.507-65.273.087-.648.157-1.296.228-1.942.608-5.588 1.088-10.001 13.856-13.18 10.739-2.673 20.837 5.502 25.15 8.992 1.086.879 1.804 1.46 2.411 1.799l1.255.699 1.279-.653c.663-.339 1.475-.947 2.705-1.868 5.042-3.777 15.535-11.635 26.244-8.969 12.768 3.179 13.249 7.592 13.856 13.18.07.646.141 1.293.228 1.941.191 1.431 4.597 35.364-3.508 65.274zm22.767-45.841a35.341 35.341 0 0 1-1.302 4.187 41.88 41.88 0 0 1-1.002 2.403c-.137.302-.279.6-.423.897-.052.107-.103.215-.156.322-.074.148-.15.294-.225.441-.067.131-.135.262-.204.391a31.356 31.356 0 0 1-.468.855c-.065.115-.129.231-.194.344-.14.242-.282.479-.426.714l-.183.294a33.043 33.043 0 0 1-.887 1.338l-.096.139c-.164.23-.33.454-.496.674l-.152.197c-.127.164-.255.324-.383.481-.052.063-.103.127-.155.188-.174.208-.349.412-.525.606-1.51 1.669-3.421 2.865-4.953 3.643l.587-22.931 12.225-10.351c.158 4.545.245 11.735-.582 15.168z" fill="#292F39" data-color="3"></path>
    </g>
</svg>