<svg preserveAspectRatio="xMidYMid meet" data-bbox="58.8 21 90.9 158.1" viewBox="58.8 21 90.9 158.1" height="200" width="200" xmlns="http://www.w3.org/2000/svg" data-type="color" role="presentation" aria-hidden="true" aria-label="">
    <g>
        <path d="M80.5 94.2c2.3-1.2 4-3.3 4.6-5.8L90 74.2c.4-2.4 1.9-4.4 4.2-5.6 0 0 .5-.3 1.3-.8V42.1L63 55.7v43.4l16.5-4.5c.3-.1.6-.2 1-.4z" fill="#2C2B44" data-color="1"></path>
        <path d="M95.4 155.4V64.9c-.8.5-1.3.8-1.3.8-2.3 1.2-3.8 3.2-4.2 5.6L85 85.4c-.6 2.5-2.3 4.6-4.6 5.8-.3.2-.7.3-1 .4L63 96.1V169l32.4-13.6z" fill="#42210B" data-color="2"></path>
        <path d="M119.2 60.4c2.2-1.7 7.1 1.7 11 4.4l8.3 5.7V24.2l-32.4 13v31.2c1.1-.6 2-1.1 2.8-1.4 4.1-1.6 8.2-4.9 10.3-6.6z" fill="#2C2B44" data-color="1"></path>
        <path d="M138.6 137.7V60.5l-8.3-5.7c-3.9-2.7-8.9-6.1-11-4.4s-6.2 5-10.3 6.7c-.7.3-1.7.8-2.8 1.4l-.7 92.8 33.1-13.6z" fill="#42210B" data-color="2"></path>
        <path fill="#999999" d="M82 77.2l7.9 3.4v29.3l5.5 2.7V69.9L82 77.2z" data-color="3"></path>
        <path d="M123.8 94.1l2.8 6.2H125l-9.8 5.1-9-3.4v1.5l-.1 32.3 9.1 5.4 10.8-4.5v-13.6l12.6-5.8V87.7l-14.8 6.4z" fill="#999999" data-color="3"></path>
        <path d="M123.8 94.1l2.8 6.2H125l-9.8 5.1-9-3.4v1.5l-.1 32.3 9.1 5.4 10.8-4.5v-13.6l12.6-5.8V87.7l-14.8 6.4z" opacity=".2"></path>
        <path fill="#999999" d="M106.2 63.9V102l8.9 3.4V82.9l7.3 9.5V55l-16.2 8.9z" data-color="3"></path>
        <path fill="#999999" d="M122.4 55v37.4l-7.3-9.5v22.5l10.8-4.1 2.6-1-4.7-6.2 14.8-6.4V63.8L122.4 55z" data-color="3"></path>
        <path opacity=".6" d="M122.4 55v37.4l-7.3-9.5v22.5l10.8-4.1 2.6-1-4.7-6.2 14.8-6.4V63.8L122.4 55z"></path>
        <path fill="#999999" d="M106.2 103.5v24.1l6.7 12.3 2.2 1.3v-32.4l-8.9-5.3z" data-color="3"></path>
        <path fill="#999999" d="M106.2 127.6l-.4 8.9.4 1.2-.2.1v4.7l6.9-2.4v-5l.8-.3v-10.1l-7.5 2.9z" data-color="3"></path>
        <path opacity=".6" d="M107.9 137.1l-1.9.7v4.7l6.9-2.4v-5l-5 2z"></path>
        <path opacity=".6" d="M65.6 179.1l-6.8-2.8v-3.7l6.8 2.8v3.7z"></path>
        <path fill="#999999" d="M110.2 89.4l-4-1.8v7l4-5.2z" data-color="3"></path>
        <path fill="#999999" d="M95.4 132v-10l-12.7 4.6V137l12.7-5z" data-color="3"></path>
        <path d="M104.9 153.4l36.1-14.9V137l.2-115.2-1.4-.8-36.2 15v116.6l1.3.8m33.6-16.7L106.1 150l.2-112.3 32.2-13.3v112.3z" fill="#999999" data-color="3"></path>
        <path d="M143.6 137.3l-2.6 1.1.2-116.6-36.2 15-.1 116.6-7.2 3V155l.2-115.3-1.3-.9-36.3 15.3v116.6l1.3.7-2.8 1.2v3.7l6.8 2.8 84.1-34.3V141l-6.1-3.7zm-37.4 12.8l.2-112.3L140 23.9l-.2 112.3v1.4l-33.6 13.7v-1.2zm-11 4.6L62.8 168 63 55.7l32.2-13.3v112.3z" fill="#999999" data-color="3"></path>
        <path d="M61.7 54.8l-.1 116.6 36.1-14.9.2-116.7-36.2 15zm34.8 99.4v1.4L63 169.2V55.7l33.6-13.9-.1 112.4z" fill="#999999" data-color="3"></path>
        <path d="M61.7 54.8l-.1 116.6 36.1-14.9.2-116.7-36.2 15zm34.8 99.4v1.4L63 169.2V55.7l33.6-13.9-.1 112.4z" opacity=".3"></path>
        <path fill="#999999" d="M71.9 119.3v-12L63 117.7V168l8.9-3.4v.6l10.8-4.5V147v9.1l7.3-2.8v-9.2l5.3-2.1v-10.1l-12.6-5.4v-1.2l2.6-.9-13.4-17.1V129" data-color="3"></path>
        <path d="M83.2 126.2v-1.3l-10.8 3.8-8.9-4.1v1.7l8.9 7v31.6l10.8-4.5v-13.7l7.3-2.9 5.2-2v-10.2l-12.5-5.4z" fill="#999999" data-color="3"></path>
        <path opacity=".6" d="M71.9 107.3v21.8l10.8-3.8 2.6-.9-13.4-17.1z"></path>
        <path opacity=".6" d="M82.7 156.1l7.3-2.8v-9.2l-7.3 2.8v9.2z"></path>
        <path opacity=".4" d="M89.9 80.6v10.1l5.5 6.6V83l-5.5-2.4z"></path>
        <path fill="#FFCD49" d="M91.9 90.3v9.9l2.8.9v-9.9l-2.8-.9z" data-color="4"></path>
        <path opacity=".4" d="M149.7 141l-84.1 34.4v3.7l84.1-34.3V141z"></path>
        <path fill="#FFCD49" d="M121.8 106.4l-2.8 1v9.8l2.8-.9v-9.9z" data-color="4"></path>
        <path fill="#FFCD49" d="M125.8 105.1l-2.8.9v10.1l2.8-.9v-10.1z" data-color="4"></path>
        <path opacity=".2" d="M106.2 127.6v10.1l1.7-.6 5-2 .8-.3v-10.1l-7.5 2.9z"></path>
        <path d="M83.2 126.2v-1.1l-11.3 4-8.9-4.3v1.7l8.9 7v32l10.8-4.4v-14.2l7.3-2.8 5.2-2.1v-10.3l-12-5.5z" opacity=".2"></path>
        <path fill="#FFCD49" d="M78.5 133.5v9.9l2.9-.9v-9.9l-1 .3-1.9.6z" data-color="4"></path>
        <path fill="#FFCD49" d="M82.6 132.1v9.9l2.8-.9v-9.9l-2.8.9z" data-color="4"></path>
        <path d="M105 36.8l-.1 116.6 36.1-14.9.2-116.7-36.2 15zm34.8 99.4v1.4l-33.6 13.7v-1.2l.2-112.3L140 23.9l-.2 112.3z" opacity=".3"></path>
    </g>
</svg>