<svg preserveAspectRatio="xMidYMid meet" viewBox="0 0 200 200" height="200" width="200" xmlns="http://www.w3.org/2000/svg" data-type="color" role="presentation" aria-hidden="true" aria-label="">
    <g>
        <path d="M121.2 41.8c-3.1 3.5-3.1 9-2.1 11.8 1.5 4.3 8.7 10.2 11.9 11.6l3-3.5s4.1.3 3.4 3.4c0 0-1.5 1.8-3.8 4.7 1.4 4.4 3.1 8.8 12 4.7 0 .1 3.5 11.1-3.9 19.2-7.4 8-18.4 5.2-18.5 5.2 3.3-8.7.5-11.1-3-12.6-5.5 6.7-10.5 12.8-11.6 14-2.9 3-12 10.9-17.7 14.5-2.3 1.5-4.5 3.4-6.2 5.2l-4.1 4.8s1.6-2.2 4.1-4.8l30.2-35.8c-2-3.2-8.3-9.5-12.4-10.4-4.6-1-15.7 1.9-12 15.1 0 0-13.2 1.9-17.3 6.4 0 0-4.9-30.7 13.8-53 .9-1.2 1.9-2.3 3-3.4-31.4 5.1-55.4 33.6-55.4 68 0 19.6 7.8 37.3 20.3 49.8L72.2 136s18-12.6 24.1-18.5c.1-.1-19.8 22.5-22.6 25.5s-12 10.9-17.7 14.5c-.1 0-.1.1-.2.1 1.2 1.2 2.5 2.3 3.8 3.4 1.7-1.4 3.1-2.6 4.2-3.7 0 0-1.4 1.6-3.7 4.2 11 8.9 24.9 14.2 39.9 14.2 36.2 0 65.5-30.8 65.5-68.8 0-30.2-18.5-55.9-44.3-65.1zM139.4 63c-.2-.8-.8-1.7-1.7-2.5-.9-.7-1.8-1.1-2.6-1.1.9-1 2.5-1.1 3.6-.1 1.2.9 1.4 2.6.7 3.7z" fill="#fd2940" data-color="1"></path>
        <path d="M80.6 124.8l4.1-4.8c-2.5 2.6-4.1 4.8-4.1 4.8z" fill="#9e0054" data-color="2"></path>
        <path d="M45.7 167.5l4-4.7c-2.4 2.6-4 4.7-4 4.7z" fill="#9e0054" data-color="2"></path>
        <path d="M73.7 143c2.9-3 22.8-25.7 22.6-25.5-6.1 5.9-24.1 18.5-24.1 18.5l-17.4 20.7-5.2 6.1c1.7-1.8 3.8-3.7 6.1-5.2.1 0 .1-.1.2-.1 5.8-3.6 14.9-11.5 17.8-14.5z" fill="#9e0054" data-color="2"></path>
        <path d="M87 42.3c-18.8 22.3-13.8 53-13.8 53 4.1-4.4 17.3-6.4 17.3-6.4-3.7-13.2 7.3-16.1 12-15.1 4.1.9 10.4 7.2 12.4 10.4L84.7 120c1.7-1.8 3.9-3.8 6.2-5.2 5.7-3.6 14.8-11.5 17.7-14.5 1.2-1.2 6.1-7.2 11.6-14 3.5 1.5 6.3 3.9 3 12.6.1 0 11.1 2.7 18.5-5.2 7.4-8.1 3.9-19.2 3.9-19.2-8.9 4.1-10.6-.3-12-4.7 1.3-1.6 2.5-3.1 3.8-4.7.7-3.1-3.4-3.4-3.4-3.4l-3 3.5c-3.2-1.4-10.4-7.3-11.9-11.6-1-2.8-.9-8.3 2.1-11.8 2-2.2 5.3-3.6 10.3-2.8 0 0-.1-14 3.5-18.9 0 0-26.8-.6-45.1 18.9-1 .9-2 2.1-2.9 3.3 0-.1 0 0 0 0z" fill="#9e0054" data-color="2"></path>
        <path d="M138.7 59.3c-1.1-1-2.7-.9-3.6.1.8 0 1.8.4 2.6 1.1.9.7 1.5 1.7 1.7 2.5.7-1.1.5-2.8-.7-3.7z" fill="#9e0054" data-color="2"></path>
        <path d="M59.6 161c-7.5 6.1-19.1 14.3-19.8 14.8l4 4.2c4.2-4.7 11.9-13.4 16.4-18.5 1.2-1.4 2.4-2.8 3.7-4.2-1.2 1.1-2.7 2.3-4.3 3.7z" fill="#9e0054" data-color="2"></path>
    </g>
</svg>