<svg
    version="1.2"
    xmlns="http://www.w3.org/2000/svg"
    viewBox="0 0 413.47673038333335 64.8"
    width="100%"
    height="43"
    class="img-fluid">
    <defs id="SvgjsDefs5011"></defs>
    <g
        id="SvgjsG5012"
        featurekey="nameLeftFeature-0"
        transform="matrix(3.970588478287588,0,0,3.970588478287588,-1.111764778653835,-16.85294239143794)"
        fill="#fff">
        <path
            d="M3.04 5 q0.3 0 0.51 0.21 t0.21 0.51 l0 1.46 q0 0.3 -0.21 0.51 t-0.51 0.21 l-2.06 0 q-0.28 0 -0.49 -0.21 t-0.21 -0.51 l0 -1.46 q0 -0.3 0.21 -0.51 t0.49 -0.21 l2.06 0 z M11.98 5 q0.28 0 0.49 0.21 t0.21 0.51 l0 1.46 q0 0.3 -0.21 0.51 t-0.49 0.21 l-4.02 0 l0 11.36 q0 0.28 -0.21 0.49 t-0.49 0.21 l-1.54 0 q-0.3 0 -0.51 -0.21 t-0.21 -0.49 l0 -13.54 q0 -0.3 0.21 -0.51 t0.51 -0.21 l6.26 0 z M24.060000000000002 14.1 l3.02 4.62 q0.22 0.36 0.02 0.72 q-0.08 0.16 -0.25 0.26 t-0.35 0.1 l-1.82 0 q-0.18 0 -0.34 -0.09 t-0.24 -0.23 l-3.04 -4.82 l-3.56 0 l0 4.44 q0 0.28 -0.21 0.49 t-0.49 0.21 l-1.52 0 q-0.28 0 -0.49 -0.21 t-0.21 -0.49 l0 -6.58 q0 -0.28 0.21 -0.49 t0.49 -0.21 l6.16 0 q1.76 0 2.34 -1 q0.2 -0.32 0.2 -0.92 q0 -0.94 -0.62 -1.48 q-0.64 -0.58 -1.84 -0.58 l-6.24 0 q-0.28 0 -0.49 -0.21 t-0.21 -0.49 l0 -1.44 q0 -0.28 0.21 -0.49 t0.49 -0.21 l6.42 0 q2.34 0 3.74 1.32 q1.46 1.32 1.46 3.58 q0 1.46 -0.64 2.49 t-1.86 1.57 z"></path>
    </g>
    <g
        id="SvgjsG5013"
        featurekey="inlineSymbolFeature-0"
        transform="matrix(0.0013158161918492496,0,0,0.0013158161918492496,126.60262351006152,-7.073827847381566)"
        fill="#ccc">
        <defs xmlns="http://www.w3.org/2000/svg"></defs>
        <g xmlns="http://www.w3.org/2000/svg">
            <path
                class="fil0"
                d="M50876 30302c-220,0 -398,-178 -398,-398 0,-220 178,-398 398,-398l8424 15c220,0 398,178 398,398 0,220 -178,398 -398,398l-8424 -15zm-20987 -17518c912,0 1739,-370 2336,-968 598,-598 968,-1424 968,-2336 0,-912 -370,-1739 -968,-2336 -598,-598 -1424,-968 -2336,-968 -912,0 -1739,370 -2336,968 -598,598 -968,1424 -968,2336 0,912 370,1739 968,2336 598,598 1424,968 2336,968zm2902 -402c-743,743 -1769,1202 -2902,1202 -1133,0 -2159,-459 -2902,-1202 -743,-743 -1202,-1769 -1202,-2902 0,-1133 459,-2159 1202,-2902 743,-743 1769,-1202 2902,-1202 1133,0 2159,459 2902,1202 743,743 1202,1769 1202,2902 0,1133 -459,2159 -1202,2902zm-14159 7128c0,1146 465,2184 1216,2935 751,751 1789,1216 2935,1216 685,0 1329,-164 1894,-455 589,-302 1097,-742 1481,-1278 871,-1213 1672,-1199 3114,-1174 162,3 335,6 655,6 320,0 493,-3 655,-6 1442,-25 2243,-39 3114,1174 384,535 892,975 1481,1278 566,291 1210,455 1894,455 1146,0 2184,-465 2935,-1216 751,-751 1216,-1789 1216,-2935 0,-1146 -465,-2184 -1216,-2935 -751,-751 -1789,-1216 -2935,-1216 -685,0 -1329,164 -1894,455 -589,302 -1097,742 -1481,1278 -871,1213 -1672,1199 -3114,1174 -162,-3 -335,-6 -655,-6 -320,0 -493,3 -655,6 -1442,25 -2243,39 -3114,-1174 -384,-535 -892,-975 -1481,-1278 -566,-291 -1210,-455 -1894,-455 -1146,0 -2184,465 -2935,1216 -751,751 -1216,1789 -1216,2935zm650 3501c-896,-896 -1450,-2134 -1450,-3501 0,-1367 554,-2605 1450,-3501 896,-896 2134,-1450 3501,-1450 811,0 1578,197 2257,545 703,361 1308,885 1765,1521 628,874 1280,863 2454,843 249,-4 515,-9 667,-9 152,0 418,5 667,9 1174,20 1826,32 2454,-843 457,-636 1062,-1160 1765,-1521 679,-349 1446,-545 2257,-545 1367,0 2605,554 3501,1450 896,896 1450,2134 1450,3501 0,1367 -554,2605 -1450,3501 -896,896 -2134,1450 -3501,1450 -811,0 -1578,-197 -2257,-545 -703,-361 -1308,-885 -1765,-1521 -628,-874 -1280,-863 -2454,-843 -249,4 -515,9 -667,9 -152,0 -418,-5 -667,-9 -1174,-20 -1826,-32 -2454,843 -457,636 -1062,1160 -1765,1521 -679,349 -1446,545 -2257,545 -1367,0 -2605,-554 -3501,-1450zm10607 23404c1133,0 2159,459 2902,1202 743,743 1202,1769 1202,2902 0,1133 -459,2159 -1202,2902 -743,743 -1769,1202 -2902,1202 -1133,0 -2159,-459 -2902,-1202 -743,-743 -1202,-1769 -1202,-2902 0,-1133 459,-2159 1202,-2902 743,-743 1769,-1202 2902,-1202zm2336 1768c-598,-598 -1424,-968 -2336,-968 -912,0 -1739,370 -2336,968 -598,598 -968,1424 -968,2336 0,912 370,1739 968,2336 598,598 1424,968 2336,968 912,0 1739,-370 2336,-968 598,-598 968,-1424 968,-2336 0,-912 -370,-1739 -968,-2336zm16187 -18291c0,-1146 -465,-2184 -1216,-2935 -751,-751 -1789,-1216 -2935,-1216 -685,0 -1329,164 -1894,455 -589,302 -1097,742 -1481,1278 -871,1213 -1672,1199 -3114,1174 -162,-3 -335,-6 -655,-6 -320,0 -493,3 -655,6 -1442,25 -2243,39 -3114,-1174 -384,-535 -892,-975 -1481,-1278 -566,-291 -1210,-455 -1894,-455 -726,0 -1407,186 -2000,512 -615,338 -1134,829 -1510,1421 -15,24 -33,46 -52,65 -814,971 -1597,958 -2928,935 -161,-3 -334,-6 -654,-6 -320,0 -493,3 -655,6 -1442,25 -2243,39 -3114,-1174 -384,-535 -892,-975 -1481,-1278 -566,-291 -1210,-455 -1894,-455 -1146,0 -2184,465 -2935,1216 -751,751 -1216,1789 -1216,2935 0,1146 465,2184 1216,2935 751,751 1789,1216 2935,1216 685,0 1329,-164 1894,-455 589,-302 1097,-742 1481,-1278 871,-1213 1672,-1199 3114,-1174 162,3 335,6 655,6 320,0 493,-3 655,-6 1442,-25 2243,-39 3114,1174 384,535 892,975 1481,1278 566,291 1210,455 1894,455 726,0 1407,-186 2000,-512 615,-338 1134,-829 1510,-1421 15,-24 33,-46 52,-65 814,-971 1597,-958 2928,-935 161,3 334,6 654,6 320,0 493,-3 655,-6 1442,-25 2243,-39 3114,1174 384,535 892,975 1481,1278 566,291 1210,455 1894,455 1146,0 2184,-465 2935,-1216 751,-751 1216,-1789 1216,-2935zm-650 -3501c896,896 1450,2134 1450,3501 0,1367 -554,2605 -1450,3501 -896,896 -2134,1450 -3501,1450 -811,0 -1578,-197 -2257,-545 -703,-361 -1308,-885 -1765,-1521 -628,-874 -1280,-863 -2454,-843 -249,4 -515,9 -667,9 -152,0 -418,-5 -667,-9 -1089,-19 -1730,-30 -2303,647 -446,697 -1062,1276 -1790,1677 -708,390 -1521,612 -2384,612 -811,0 -1578,-197 -2257,-545 -703,-361 -1308,-885 -1765,-1521 -628,-874 -1280,-863 -2454,-843 -249,4 -515,9 -667,9 -152,0 -418,-5 -667,-9 -1174,-20 -1826,-32 -2454,843 -457,636 -1062,1160 -1765,1521 -679,349 -1446,545 -2257,545 -1367,0 -2605,-554 -3501,-1450 -896,-896 -1450,-2134 -1450,-3501 0,-1367 554,-2605 1450,-3501 896,-896 2134,-1450 3501,-1450 811,0 1578,197 2257,545 703,361 1308,885 1765,1521 628,874 1280,863 2454,843 249,-4 515,-9 667,-9 152,0 418,5 667,9 1089,19 1730,30 2303,-647 446,-697 1062,-1276 1790,-1677 708,-390 1521,-612 2384,-612 811,0 1578,197 2257,545 703,361 1308,885 1765,1521 628,874 1280,863 2454,843 249,-4 515,-9 667,-9 152,0 418,5 667,9 1174,20 1826,32 2454,-843 457,-636 1062,-1160 1765,-1521 679,-349 1446,-545 2257,-545 1367,0 2605,554 3501,1450zm-29931 14097c0,-1367 554,-2605 1450,-3501 896,-896 2134,-1450 3501,-1450 811,0 1578,197 2257,545 703,361 1308,885 1765,1521 628,874 1280,863 2454,843 249,-4 515,-9 667,-9 152,0 418,5 667,9 1174,20 1826,32 2454,-843 457,-636 1062,-1160 1765,-1521 679,-349 1446,-545 2257,-545 1367,0 2605,554 3501,1450 896,896 1450,2134 1450,3501 0,1367 -554,2605 -1450,3501 -896,896 -2134,1450 -3501,1450 -811,0 -1578,-197 -2257,-545 -703,-361 -1308,-885 -1765,-1521 -628,-874 -1280,-863 -2454,-843 -249,4 -515,9 -667,9 -152,0 -418,-5 -667,-9 -1174,-20 -1826,-32 -2454,843 -457,636 -1062,1160 -1765,1521 -679,349 -1446,545 -2257,545 -1367,0 -2605,-554 -3501,-1450 -896,-896 -1450,-2134 -1450,-3501zm2016 -2935c-751,751 -1216,1789 -1216,2935 0,1146 465,2184 1216,2935 751,751 1789,1216 2935,1216 685,0 1329,-164 1894,-455 589,-302 1097,-742 1481,-1278 871,-1213 1672,-1199 3114,-1174 162,3 335,6 655,6 320,0 493,-3 655,-6 1442,-25 2243,-39 3114,1174 384,535 892,975 1481,1278 566,291 1210,455 1894,455 1146,0 2184,-465 2935,-1216 751,-751 1216,-1789 1216,-2935 0,-1146 -465,-2184 -1216,-2935 -751,-751 -1789,-1216 -2935,-1216 -685,0 -1329,164 -1894,455 -589,302 -1097,742 -1481,1278 -871,1213 -1672,1199 -3114,1174 -162,-3 -335,-6 -655,-6 -320,0 -493,3 -655,6 -1442,25 -2243,39 -3114,-1174 -384,-535 -892,-975 -1481,-1278 -566,-291 -1210,-455 -1894,-455 -1146,0 -2184,465 -2935,1216zm-3595 2342c220,0 398,178 398,398 0,220 -178,398 -398,398l-8791 -21c-220,0 -398,-178 -398,-398 0,-220 178,-398 398,-398l8791 21zm27466 797c-220,0 -398,-178 -398,-398 0,-220 178,-398 398,-398l8791 -21c220,0 398,178 398,398 0,220 -178,398 -398,398l-8791 21zm-12990 9893c-67,50 -150,80 -240,79l-479 -2 -479 2c-90,0 -173,-29 -240,-79 -101,-73 -166,-191 -165,-325 1,-220 180,-398 400,-397l484 2 484 -2c220,-1 399,177 400,397 1,134 -65,252 -165,325zm-6124 -741c220,1 398,180 397,400 -1,220 -180,398 -400,397l-7963 -31c-220,-1 -398,-180 -397,-400 1,-220 180,-398 400,-397l7963 31zm10814 797c-220,1 -399,-177 -400,-397 -1,-220 177,-399 397,-400l7963 -31c220,-1 399,177 400,397 1,220 -177,399 -397,400l-7963 31zm-19166 -31498c220,0 398,178 398,398 0,220 -178,398 -398,398l-8791 21c-220,0 -398,-178 -398,-398 0,-220 178,-398 398,-398l8791 -21zm27466 797c-220,0 -398,-178 -398,-398 0,-220 178,-398 398,-398l8791 21c220,0 398,178 398,398 0,220 -178,398 -398,398l-8791 -21zm-13230 -10769c90,0 173,29 240,79 101,73 166,191 165,325 -1,220 -180,398 -400,397l-484 -2 -484 2c-220,1 -399,-177 -400,-397 -1,-134 65,-252 165,-325 67,-50 150,-80 240,-79l479 2 479 -2zm-5887 23c220,-1 399,177 400,397 1,220 -177,399 -397,400l-7963 31c-220,1 -399,-177 -400,-397 -1,-220 177,-399 397,-400l7963 -31zm10814 797c-220,-1 -398,-180 -397,-400 1,-220 180,-398 400,-397l7963 31c220,1 398,180 397,400 -1,220 -180,398 -400,397l-7963 -31zm-26291 19513c220,0 398,178 398,398 0,220 -178,398 -398,398l-8424 15c-220,0 -398,-178 -398,-398 0,-220 178,-398 398,-398l8424 -15z"
                style="fill: #606060; fill-rule: nonzero;"></path>
        </g>
    </g>
    <g
        id="SvgjsG5014"
        featurekey="nameRightFeature-0"
        transform="matrix(2.616278844920302,0,0,2.616278844920302,209.61627884492032,1.6046526134174055)"
        fill="#fff">
        <path
            d="M22.44 5.4399999999999995 l-16 0 c-0.37334 0 -0.56 0.18666 -0.56 0.56 s0.18666 0.56 0.56 0.56 l7.44 0 l0 11.44 c0 0.37334 0.18666 0.56 0.56 0.56 s0.56 -0.18666 0.56 -0.56 l0 -11.44 l7.44 0 c0.37334 0 0.56 -0.18666 0.56 -0.56 s-0.18666 -0.56 -0.56 -0.56 z M40.660000000000004 12.559999999999999 c0.37334 0 0.56 -0.18666 0.56 -0.56 s-0.18666 -0.56 -0.56 -0.56 l-15.44 0 l0 -4.88 l15.44 0 c0.37334 0 0.56 -0.18666 0.56 -0.56 s-0.18666 -0.56 -0.56 -0.56 l-16.56 0 l0 13.12 l16.56 0 c0.37334 0 0.56 -0.18666 0.56 -0.56 s-0.18666 -0.56 -0.56 -0.56 l-15.44 0 l0 -4.88 l15.44 0 z M58.940000000000005 8.14 c-0.81334 -0.94666 -1.8733 -1.6867 -3.18 -2.22 s-2.7 -0.8 -4.18 -0.8 c-2.44 0 -4.52 0.65334 -6.24 1.96 c-1.7733 1.3467 -2.66 2.9866 -2.66 4.92 s0.88666 3.5734 2.66 4.92 c1.72 1.3067 3.8 1.96 6.24 1.96 c1.48 0 2.8734 -0.26666 4.18 -0.8 s2.3666 -1.2733 3.18 -2.22 l0 0 c0.24 -0.29334 0.22666 -0.55334 -0.04 -0.78 c-0.10666 -0.09334 -0.23332 -0.14 -0.37998 -0.14 c-0.16 0 -0.29334 0.06 -0.4 0.18 l0 0 c-0.73334 0.82666 -1.6767 1.4767 -2.83 1.95 s-2.39 0.71 -3.71 0.71 c-2.1466 0 -3.98 -0.56666 -5.5 -1.7 s-2.28 -2.4934 -2.28 -4.08 s0.76 -2.9466 2.28 -4.08 s3.3534 -1.7 5.5 -1.7 c1.32 0 2.5566 0.23666 3.71 0.71 s2.0966 1.1233 2.83 1.95 l0 0 c0.10666 0.12 0.24 0.18 0.4 0.18 c0.14666 0 0.27332 -0.04666 0.37998 -0.14 c0.26666 -0.22666 0.28 -0.48666 0.04 -0.78 z M77.36 5.66 c-0.37334 0 -0.56 0.18666 -0.56 0.56 l0 5.44 l-14.88 0 l0 -5.44 c0 -0.37334 -0.18666 -0.56 -0.56 -0.56 s-0.56 0.18666 -0.56 0.56 l0 12 c0 0.37334 0.18666 0.56 0.56 0.56 s0.56 -0.18666 0.56 -0.56 l0 -5.44 l14.88 0 l0 5.44 c0 0.37334 0.18666 0.56 0.56 0.56 s0.56 -0.18666 0.56 -0.56 l0 -12 c0 -0.37334 -0.18666 -0.56 -0.56 -0.56 z"></path>
    </g>
    <use href="#SvgjsDefs5011" x="0" y="-1"/>
</svg>